HIERARCHY
ROOT root
{
	OFFSET 0.000000 0.000000 0.000000
	CHANNELS 6 Xposition Yposition Zposition Zrotation Yrotation Xrotation
	JOINT lhip
	{
		OFFSET 0.058581 -0.082280 -0.017664
		CHANNELS 3 Zrotation Yrotation Xrotation
		JOINT lknee
		{
			OFFSET 0.043451 -0.386469 0.008037
			CHANNELS 3 Zrotation Yrotation Xrotation
			JOINT lankle
			{
				OFFSET -0.014790 -0.426874 -0.037428
				CHANNELS 3 Zrotation Yrotation Xrotation
				JOINT ltoe
				{
					OFFSET 0.041054 -0.060286 0.122042
					CHANNELS 3 Zrotation Yrotation Xrotation
					End Site
					{
						OFFSET 0.000000 0.000000 0.000000
					}
				}
			}
		}
	}
	JOINT rhip
	{
		OFFSET -0.060310 -0.090513 -0.013543
		CHANNELS 3 Zrotation Yrotation Xrotation
		JOINT rknee
		{
			OFFSET -0.043257 -0.383688 -0.004843
			CHANNELS 3 Zrotation Yrotation Xrotation
			JOINT rankle
			{
				OFFSET 0.019056 -0.420046 -0.034562
				CHANNELS 3 Zrotation Yrotation Xrotation
				JOINT rtoe
				{
					OFFSET -0.034840 -0.062106 0.130323
					CHANNELS 3 Zrotation Yrotation Xrotation
					End Site
					{
						OFFSET 0.000000 0.000000 0.000000
					}
				}
			}
		}
	}
	JOINT lowerback
	{
		OFFSET 0.004439 0.124404 -0.038385
		CHANNELS 3 Zrotation Yrotation Xrotation
		JOINT upperback
		{
			OFFSET 0.004488 0.137956 0.026820
			CHANNELS 3 Zrotation Yrotation Xrotation
			JOINT chest
			{
				OFFSET -0.002265 0.056032 0.002855
				CHANNELS 3 Zrotation Yrotation Xrotation
				JOINT lowerneck
				{
					OFFSET -0.013390 0.211636 -0.033468
					CHANNELS 3 Zrotation Yrotation Xrotation
					JOINT upperneck
					{
						OFFSET 0.010113 0.088937 0.050410
						CHANNELS 3 Zrotation Yrotation Xrotation
						End Site
						{
							OFFSET 0.000000 0.000000 0.000000
						}
					}
				}
				JOINT lclavicle
				{
					OFFSET 0.071702 0.114000 -0.018898
					CHANNELS 3 Zrotation Yrotation Xrotation
					JOINT lshoulder
					{
						OFFSET 0.122921 0.045205 -0.019046
						CHANNELS 3 Zrotation Yrotation Xrotation
						JOINT lelbow
						{
							OFFSET 0.255332 -0.015649 -0.022946
							CHANNELS 3 Zrotation Yrotation Xrotation
							JOINT lwrist
							{
								OFFSET 0.265709 0.012698 -0.007375
								CHANNELS 3 Zrotation Yrotation Xrotation
								End Site
								{
									OFFSET 0.000000 0.000000 0.000000
								}
							}
						}
					}
				}
				JOINT rclavicle
				{
					OFFSET -0.082954 0.112472 -0.023707
					CHANNELS 3 Zrotation Yrotation Xrotation
					JOINT rshoulder
					{
						OFFSET -0.113228 0.046853 -0.008472
						CHANNELS 3 Zrotation Yrotation Xrotation
						JOINT relbow
						{
							OFFSET -0.260127 -0.014369 -0.031269
							CHANNELS 3 Zrotation Yrotation Xrotation
							JOINT rwrist
							{
								OFFSET -0.269108 0.006794 -0.006027
								CHANNELS 3 Zrotation Yrotation Xrotation
								End Site
								{
									OFFSET 0.000000 0.000000 0.000000
								}
							}
						}
					}
				}
			}
		}
	}
}
MOTION
Frames: 16
Frame Time: 0.033333
-0.002258 -1.328765 0.999347 -163.531208 1.185906 104.560210 5.688970 2.144726 -15.014226 -3.028553 -0.535590 -0.708586 -3.359494 9.414030 -6.629653 0.000000 -0.000000 0.000000 -2.863248 -13.585530 -13.745719 -2.691944 -20.972649 1.540076 2.709894 -11.440616 -2.326188 0.000000 -0.000000 0.000000 -2.996041 6.225643 -23.796390 2.810163 -2.353911 16.253015 -0.538822 1.060994 -4.684635 -2.398361 19.544328 8.949210 3.742475 27.375983 -1.865914 -29.586794 3.521263 -1.164789 -56.407043 3.180673 15.423171 16.564422 -26.018860 -18.113549 1.115569 -11.615468 -3.535784 20.489977 5.382319 1.285154 58.527808 8.595914 15.047521 -3.382787 9.777186 -14.038747 -1.888675 14.547959 -13.332993 
-0.001709 -1.328418 0.997898 -163.542506 1.437019 104.270366 5.890524 2.767952 -14.721418 -2.777820 0.163764 -0.668027 -3.736778 8.313245 -6.431168 0.000000 -0.000000 0.000000 -2.541660 -14.100613 -13.352661 -2.659830 -20.478817 1.289906 3.344587 -11.392150 -2.364263 0.000000 -0.000000 0.000000 -2.350461 6.467742 -23.302958 2.061288 -2.188490 14.433811 -0.527941 1.097217 -2.255747 -0.993202 20.629598 8.299194 2.982671 25.927849 -2.052747 -27.991154 2.331539 -1.609361 -58.192198 2.936050 13.949050 16.446203 -25.803056 -17.581156 -2.841194 -11.634221 -2.983128 20.102191 5.718991 0.913061 59.113823 9.020745 13.039330 -3.872261 9.471034 -14.035070 0.985354 14.208277 -11.367461 
-0.001603 -1.328004 0.996225 -163.743018 1.523513 104.270565 5.918640 2.832995 -14.668132 -2.585151 0.697531 -0.708639 -3.676024 7.948640 -6.157268 0.000000 -0.000000 0.000000 -2.555498 -14.082165 -13.435024 -2.633761 -20.510503 1.331222 3.331838 -11.123510 -2.400350 0.000000 -0.000000 0.000000 -2.043558 6.449765 -23.874482 1.517231 -2.098037 14.282939 -0.772503 1.247228 -1.676468 1.231732 21.151272 8.962977 2.552204 25.344551 -1.219289 -26.368295 1.200883 -0.991937 -60.247005 2.820468 13.105654 17.109776 -25.321962 -18.543864 -4.270506 -11.811913 -2.503877 20.280620 6.388076 2.158293 59.271807 9.655561 12.182381 -4.174243 9.513597 -14.561391 1.535392 14.103836 -11.223915 
-0.001431 -1.327427 0.995381 -163.956526 1.082703 104.671666 5.435792 2.306984 -14.986275 -2.386177 0.955296 -0.754523 -3.086460 8.240136 -6.093021 0.000000 -0.000000 0.000000 -3.173131 -14.055656 -13.985717 -2.519846 -20.570284 1.588137 3.810611 -11.175078 -2.514451 0.000000 -0.000000 0.000000 -1.825136 5.987385 -22.486631 1.147458 -1.893950 12.233101 -0.734039 0.707761 -0.817825 -1.889527 20.471403 6.890395 3.509311 26.650688 -2.229613 -27.570427 3.480093 -2.391223 -58.783987 2.106773 12.917542 15.086179 -25.500616 -17.662206 -3.476105 -12.899097 -2.342301 20.034718 4.830986 2.092731 59.503377 11.650004 11.852154 -3.439064 8.732557 -14.298134 1.914002 14.574950 -8.874899 
-0.001252 -1.327316 0.994677 -164.042144 1.016656 104.808920 5.376024 2.229632 -15.162812 -2.372288 1.113015 -0.695544 -3.021779 8.284465 -6.060587 0.000000 -0.000000 0.000000 -3.315328 -13.966302 -14.177463 -2.466137 -20.714344 1.681843 3.815868 -11.103572 -2.494880 0.000000 -0.000000 0.000000 -1.837269 5.930834 -22.594485 1.070626 -1.856843 12.141117 -0.740859 0.714491 -0.768433 -1.752637 20.519705 6.809688 3.525160 26.553339 -2.037307 -27.438063 3.427104 -2.398648 -59.071585 2.041485 12.906707 15.092725 -25.192107 -17.874851 -2.314667 -12.994768 -2.105848 19.935971 4.870998 2.083452 59.648716 11.608150 11.881942 -3.352835 8.676010 -14.310551 1.405727 14.870251 -9.036989 
-0.001016 -1.327004 0.993347 -164.180981 0.790613 104.975562 5.141247 2.057570 -15.326742 -2.316820 1.253799 -0.769167 -2.975079 8.480011 -5.941631 0.000000 -0.000000 0.000000 -3.741382 -13.868498 -14.405191 -2.306866 -20.891627 1.820420 3.823476 -11.042222 -2.485820 0.000000 -0.000000 0.000000 -1.933184 5.857585 -22.772114 0.932159 -1.837062 12.263152 -0.821450 0.723135 -0.832871 -1.596191 20.474948 6.578856 3.529054 26.496346 -1.776797 -27.237599 3.485142 -2.369549 -59.356008 1.793354 12.899683 14.928853 -25.124794 -18.015662 -1.596681 -12.875702 -1.852732 19.946328 4.798209 2.048778 59.773404 11.677171 11.870827 -3.362500 8.679940 -14.540079 1.285287 14.978460 -8.952754 
-0.000759 -1.326223 0.992224 -164.458577 0.596525 105.142423 4.924787 1.850467 -15.413094 -2.189535 1.393008 -0.765533 -2.907052 8.634138 -5.824338 0.000000 -0.000000 0.000000 -4.132379 -13.744969 -14.625169 -2.152102 -21.007276 1.928692 3.876735 -10.959329 -2.446436 0.000000 -0.000000 0.000000 -1.976348 5.814054 -22.912308 0.775347 -1.766681 12.198745 -0.903488 0.644922 -0.820182 -1.588478 20.656368 6.441348 3.677762 26.441467 -1.554325 -27.107072 3.799277 -2.421813 -59.444225 1.687808 12.806498 14.735733 -25.280772 -17.936619 -2.853011 -12.928597 -1.639651 20.028594 4.630882 2.254481 59.853613 12.113721 11.723705 -3.450936 8.555893 -14.849200 2.181448 14.784297 -8.157457 
-0.000067 -1.326742 0.990998 -164.844634 0.522037 105.588646 4.875301 1.748082 -15.864374 -2.092542 2.074433 -0.847416 -3.136288 7.967191 -5.891016 0.000000 -0.000000 0.000000 -4.319155 -13.409143 -15.393459 -2.166509 -21.177375 2.316889 4.006996 -10.859512 -2.465555 0.000000 -0.000000 0.000000 -1.848914 5.707168 -22.887888 0.590169 -1.587875 11.492964 -0.930449 0.646658 -0.499200 -1.590976 20.761736 6.096991 3.570534 26.371490 -1.323022 -26.940639 4.020663 -2.688089 -59.720448 1.732428 12.945533 14.725927 -25.241305 -17.829182 -3.401334 -12.828956 -1.369274 19.968593 4.515967 2.166035 60.036894 12.301481 11.826419 -3.444976 8.620419 -15.068623 2.664075 14.612920 -7.763929 
0.000812 -1.326028 0.989670 -165.167822 0.414744 105.856630 4.820891 1.706012 -16.129130 -2.070470 2.451514 -0.744780 -3.144767 7.933597 -5.841208 0.000000 -0.000000 0.000000 -4.556043 -13.168594 -15.716099 -2.055392 -21.365618 2.413360 4.028135 -10.741953 -2.468452 0.000000 -0.000000 0.000000 -1.958131 5.575925 -23.302201 0.484527 -1.557179 11.637528 -0.891909 0.654688 -0.400538 -1.668940 20.793559 5.946563 3.646119 26.473997 -1.219863 -26.724244 3.898955 -2.638866 -60.089005 1.884712 12.889159 15.135124 -25.309732 -17.780721 -4.251571 -12.852116 -1.545914 19.857778 4.593053 2.111889 60.325919 12.461681 11.744092 -3.495150 8.645948 -15.184940 3.189632 14.444189 -7.448693 
0.001182 -1.325693 0.988479 -165.638248 0.265384 106.166119 4.628748 1.613048 -16.370272 -2.028292 2.581800 -0.765659 -3.060473 8.320287 -5.798310 0.000000 -0.000000 0.000000 -4.907022 -12.860965 -16.220641 -1.981291 -21.497348 2.660160 4.104722 -10.628186 -2.428937 0.000000 -0.000000 0.000000 -1.966027 5.422205 -23.543271 0.338401 -1.398751 11.524992 -0.879807 0.713253 -0.199252 -1.766512 20.858363 5.693166 3.548645 26.527022 -1.232693 -26.611210 3.878377 -2.797405 -60.219958 2.081597 12.975826 14.982396 -25.309018 -17.578827 -4.078163 -13.250554 -1.981869 19.840188 4.682228 1.966848 60.491044 12.419753 11.813744 -3.446890 8.815029 -15.086105 3.126406 14.782708 -7.572838 
0.001926 -1.325018 0.988069 -165.857540 0.406051 106.087614 4.787416 1.700789 -16.304358 -1.998883 2.572969 -0.647929 -3.004257 8.942595 -5.704245 0.000000 -0.000000 0.000000 -4.812926 -12.751918 -16.152826 -1.915533 -21.396135 2.658294 4.153076 -10.661120 -2.489410 0.000000 -0.000000 0.000000 -1.901966 5.415714 -23.317122 0.429505 -1.413090 11.186153 -0.778378 0.637947 0.098895 -1.998947 20.716276 5.623450 3.474121 26.684594 -1.405875 -26.877608 3.736226 -2.679976 -60.024211 2.159647 12.891964 14.769954 -25.583652 -17.329370 -3.292319 -12.941754 -1.780086 19.922217 4.717393 1.840667 60.348793 12.358996 11.623367 -3.269386 8.979114 -14.850510 2.961204 14.887008 -7.573158 
0.002713 -1.324556 0.987856 -166.143719 0.477321 105.951545 4.866045 1.890513 -16.054074 -2.046814 2.495341 -0.759704 -2.987632 9.155797 -5.627675 0.000000 -0.000000 0.000000 -4.827431 -12.675086 -16.013206 -1.794745 -21.321956 2.614078 4.142167 -10.553587 -2.509737 0.000000 -0.000000 0.000000 -1.858381 5.407231 -23.067274 0.459053 -1.416305 11.129942 -0.771980 0.571388 0.130118 -1.944755 20.777572 5.660637 3.229757 26.621252 -1.710483 -26.946320 3.778958 -2.775997 -59.917410 2.205083 12.886791 14.700331 -25.655910 -17.169632 -3.141954 -12.999441 -1.877397 20.020151 4.755817 1.715932 60.356909 12.288082 11.713454 -3.149211 9.185015 -14.746656 2.670462 14.732623 -7.724424 
0.003567 -1.323805 0.987484 -166.503018 0.600300 105.864231 5.054571 2.032211 -15.680893 -2.025702 2.986926 -1.128206 -3.277353 8.227712 -5.918244 0.000000 -0.000000 0.000000 -4.753125 -12.559780 -15.871634 -1.709470 -21.299114 2.488622 4.320572 -10.348647 -2.538141 0.000000 -0.000000 0.000000 -1.804144 5.356884 -22.800188 0.471516 -1.377863 10.805280 -0.715260 0.606010 0.217017 -1.813197 21.063332 5.890781 3.208469 26.389812 -1.834226 -26.764089 3.831767 -2.773721 -60.114828 2.246685 12.994435 14.788487 -25.496942 -17.112496 -3.296095 -13.115122 -1.991562 20.050534 4.787684 1.879871 60.463390 12.285979 11.748743 -3.223534 9.299158 -14.863176 2.782576 14.705303 -7.829920 
0.003959 -1.323811 0.987249 -166.759732 0.666378 105.927821 5.109455 2.135605 -15.811532 -2.015698 3.109287 -0.969523 -3.284654 8.219157 -5.897560 0.000000 -0.000000 0.000000 -4.733113 -12.400212 -15.937832 -1.625344 -21.225201 2.368084 4.413468 -10.326947 -2.475577 0.000000 -0.000000 0.000000 -1.748386 5.294449 -22.647831 0.474116 -1.369838 10.444224 -0.689392 0.619126 0.247535 -1.826165 20.945657 6.171278 3.297085 26.420578 -1.841337 -26.743273 3.831855 -2.694488 -60.141487 2.267242 13.039373 14.782870 -25.350992 -16.858228 -2.814886 -13.379602 -2.349543 19.959694 4.677760 1.916216 60.564519 12.152717 11.700417 -3.064565 9.441478 -14.472338 2.552936 14.949976 -8.172523 
0.004153 -1.324028 0.987314 -166.984996 0.686017 105.812763 5.093523 2.216534 -15.667476 -2.019180 3.074732 -0.969886 -3.154903 8.516372 -5.964226 0.000000 -0.000000 0.000000 -4.796337 -12.291430 -15.823671 -1.534500 -21.067992 2.278431 4.471982 -10.318618 -2.415882 0.000000 -0.000000 0.000000 -1.729690 5.301991 -22.484439 0.474393 -1.359610 10.498066 -0.693626 0.595508 0.213848 -1.848497 20.884768 6.126877 3.281771 26.456902 -1.825524 -26.802766 3.669594 -2.545415 -60.027704 2.200405 12.911230 14.977753 -25.417806 -16.966008 -3.154672 -13.249955 -2.317812 20.004132 4.760580 1.896286 60.504455 12.009983 11.588449 -3.161480 9.522028 -14.452520 3.095255 14.863231 -8.099718 
0.004330 -1.324069 0.987204 -167.266986 0.742326 105.754722 5.084998 2.110590 -15.365038 -1.874702 3.222720 -1.318910 -3.063070 8.819057 -5.779466 0.000000 -0.000000 0.000000 -4.830175 -12.078494 -15.844010 -1.514763 -21.011553 2.313966 4.488120 -10.328954 -2.400398 0.000000 -0.000000 0.000000 -1.694788 5.272923 -22.329636 0.500094 -1.307103 10.449936 -0.663732 0.590021 0.240691 -1.937447 21.028289 6.225625 3.297661 26.478343 -2.065695 -26.819754 3.618153 -2.616281 -59.969549 2.180859 12.943505 14.870378 -25.439328 -16.944370 -3.207811 -13.482634 -2.420433 20.076204 4.782933 1.872061 60.351081 11.932719 11.525931 -3.125632 9.541246 -14.559091 3.074065 14.908171 -8.014604 
